<svg xmlns="http://www.w3.org/2000/svg" viewBox="0 0 64 64">
  <defs>
    <linearGradient id="kbg" x1="0" y1="0" x2="0" y2="1">
      <stop offset="0" stop-color="#2dd4bf"/>
      <stop offset="1" stop-color="#0b6e61"/>
    </linearGradient>
    <linearGradient id="kbody" x1="0" y1="0" x2="0" y2="1">
      <stop offset="0" stop-color="#5eead4"/>
      <stop offset="0.55" stop-color="#14b8a6"/>
      <stop offset="1" stop-color="#0f766e"/>
    </linearGradient>
    <linearGradient id="kglass" x1="0" y1="0" x2="1" y2="1">
      <stop offset="0" stop-color="#e0f7ff"/>
      <stop offset="1" stop-color="#7dd3fc"/>
    </linearGradient>
    <ellipse id="kshadow" cx="32" cy="50" rx="20" ry="4" fill="#000" opacity="0.25"/>
  </defs>
  <rect x="2" y="2" width="60" height="60" rx="14" fill="url(#kbg)"/>
  <rect x="2" y="2" width="60" height="60" rx="14" fill="#fff" opacity="0.08"/>
  <use href="#kshadow"/>
  <g>
    <path d="M10 41c0-2.2 1.1-3.7 3-4.4l6.6-2.4 5-6.9c.9-1.2 2.2-1.9 3.7-1.9h9.5c1.4 0 2.6.6 3.5 1.7l5.3 6.3 6.3 2c2.1.7 3.2 2.2 3.2 4.4v3.5c0 1.3-1 2.3-2.3 2.3h-2.7c-.5 2-2.3 3.5-4.5 3.5s-4-1.5-4.5-3.5H24.9c-.5 2-2.3 3.5-4.5 3.5s-4-1.5-4.5-3.5h-3.6c-1.3 0-2.3-1-2.3-2.3V41z" fill="url(#kbody)" stroke="#073e38" stroke-width="1.6"/>
    <path d="M26.4 33.4l3.7-5c.2-.3.6-.5 1-.5h8c.4 0 .7.2.9.5l4 5.1c.3.4 0 1-.5 1H27c-.6 0-.9-.6-.6-1.1z" fill="url(#kglass)" stroke="#073e38" stroke-width="1"/>
    <path d="M14 37.5l4.5-1.6M41 35.6l5 1.6" stroke="#0b6e61" stroke-width="1.4" stroke-linecap="round"/>
    <circle cx="20.4" cy="45.6" r="4.4" fill="#111827"/>
    <circle cx="20.4" cy="45.6" r="2" fill="#9aa2ad"/>
    <circle cx="20.4" cy="45.6" r="0.9" fill="#e5e7eb"/>
    <circle cx="45.6" cy="45.6" r="4.4" fill="#111827"/>
    <circle cx="45.6" cy="45.6" r="2" fill="#9aa2ad"/>
    <circle cx="45.6" cy="45.6" r="0.9" fill="#e5e7eb"/>
    <path d="M16 30l3-4" stroke="#fff" stroke-width="1.6" stroke-linecap="round" opacity="0.7"/>
  </g>
</svg>
